<svg xmlns="http://www.w3.org/2000/svg"  viewBox="0 0 48 48" width="192px" height="192px"><radialGradient id="ngGRkJ70_7W~acpNDem6la" cx="24.4" cy="17.801" r="19.926" gradientTransform="matrix(1.1967 0 0 1.0724 -4.75 -1.307)" gradientUnits="userSpaceOnUse"><stop offset="0" stop-color="#253808"/><stop offset=".155" stop-color="#57801a"/><stop offset=".402" stop-color="#70a622"/><stop offset=".536" stop-color="#7ab525"/><stop offset=".658" stop-color="#77b024"/><stop offset=".793" stop-color="#6ea321"/><stop offset=".933" stop-color="#608d1d"/><stop offset="1" stop-color="#57801a"/></radialGradient><path fill="url(#ngGRkJ70_7W~acpNDem6la)" d="M24.162,18.042c0.678,0,1.76-1.28,4.872-4.02c0.238-0.209-0.902-1.147-0.64-1.374	c0.258-0.223,1.917,0.266,2.2,0.026c0.182-0.154,0.37-0.312,0.562-0.473c0.672-0.562,1.098-0.89,1.935-1.421	c0.343-0.218-1.715-1.674-1.081-2.065c0.632-0.391,3.035,0.879,3.862,0.42c0.724-0.401,0.768-0.459,1.618-0.843	c0.267-0.121-0.857-1.011-0.597-1.124c0.279-0.121,1.897,0.399,2.178,0.386c1.616-0.07,2.994-1.184,2.994-1.184	s-7.92-3.731-13.84,1.73C24.074,11.93,24.111,14.937,24.162,18.042z"/><radialGradient id="ngGRkJ70_7W~acpNDem6lb" cx="23.509" cy="17.598" r="19.926" gradientTransform="matrix(.3358 1.1486 -1.0293 .3009 33.786 -14.316)" gradientUnits="userSpaceOnUse"><stop offset="0" stop-color="#253808"/><stop offset=".285" stop-color="#57801a"/><stop offset=".448" stop-color="#70a622"/><stop offset=".536" stop-color="#7ab525"/><stop offset=".658" stop-color="#77b024"/><stop offset=".793" stop-color="#6ea321"/><stop offset=".933" stop-color="#608d1d"/><stop offset="1" stop-color="#57801a"/></radialGradient><path fill="url(#ngGRkJ70_7W~acpNDem6lb)" d="M23.236,17.779c0.195,0.668,1.79,1.395,5.517,3.734c0.335,0.21,0.534-1.069,0.758-0.924	c0.198,0.129,0.515,1.734,0.724,1.871c0.254,0.167,0.299,0.213,0.569,0.394c0.728,0.487,1.162,0.804,1.907,1.459	c0.305,0.268,1.126-2.116,1.679-1.616c0.552,0.497,0.008,3.159,0.68,3.825c0.478,0.473,0.795,0.733,1.296,1.306	c0.199,0.227,0.753-0.769,0.936-0.535c0.303,0.389,0.192,1.928,0.356,2.126c1.022,1.239,1.802,2.27,1.802,2.27	s1.359-8.649-5.543-12.799C29.078,15.98,26.202,16.858,23.236,17.779z"/><radialGradient id="ngGRkJ70_7W~acpNDem6lc" cx="24.465" cy="18.382" r="22.227" gradientTransform="rotate(5.774 25.042 18.518)" gradientUnits="userSpaceOnUse"><stop offset="0" stop-color="#253808"/><stop offset=".155" stop-color="#57801a"/><stop offset=".402" stop-color="#70a622"/><stop offset=".536" stop-color="#7ab525"/><stop offset=".658" stop-color="#77b024"/><stop offset=".793" stop-color="#6ea321"/><stop offset=".933" stop-color="#608d1d"/><stop offset="1" stop-color="#57801a"/></radialGradient><path fill="url(#ngGRkJ70_7W~acpNDem6lc)" d="M19.767,8.282C13.467,3.644,6.904,8.626,6.904,8.626s2.604,0.514,4.963,1.479	c0.828,0.34,2.844-1.118,3.486-0.819s-0.634,2.09-0.285,2.258c0.85,0.412,2.025,0.872,2.731,1.338	c0.458,0.304,1.718-1.003,2.113-0.714c0.307,0.225-0.481,1.777,0.036,2.26c2.985,2.798,4.131,4.249,5.128,4.083	C24.595,15.355,24.185,11.535,19.767,8.282z"/><path fill="#805811" d="M30.093,42c-2.228-3.207-7.702-13.359-4.755-24.48h-1.609c0,0-5.662,7.674-0.558,24.48H30.093z"/><path fill="#815912" d="M30.032,42c-2.272-3.249-7.659-13.359-4.712-24.48h-1.58c0,0-5.65,7.791-0.507,24.48H30.032z"/><path fill="#825a13" d="M29.972,42c-2.316-3.291-7.615-13.359-4.668-24.48h-1.552c0,0-5.638,7.909-0.457,24.48H29.972z"/><path fill="#825b14" d="M29.912,42c-2.36-3.333-7.572-13.359-4.625-24.48h-1.523c0,0-5.626,8.026-0.406,24.48H29.912z"/><path fill="#835b15" d="M29.851,42c-2.404-3.375-7.529-13.359-4.582-24.48h-1.495c0,0-5.614,8.143-0.355,24.48H29.851z"/><path fill="#845c16" d="M29.791,42c-2.448-3.417-7.485-13.359-4.538-24.48h-1.466c0,0-5.602,8.261-0.305,24.48H29.791z"/><path fill="#855d17" d="M29.731,42c-2.492-3.459-7.442-13.359-4.495-24.48h-1.438c0,0-5.59,8.378-0.254,24.48H29.731z"/><path fill="#865e18" d="M29.67,42c-2.536-3.502-7.399-13.359-4.452-24.48h-1.409c0,0-5.578,8.496-0.204,24.48H29.67z"/><path fill="#865f19" d="M29.61,42c-2.58-3.544-7.356-13.359-4.408-24.48h-1.381c0,0-5.567,8.613-0.153,24.48H29.61z"/><path fill="#87601a" d="M29.549,42c-2.624-3.586-7.312-13.359-4.365-24.48h-1.352c0,0-5.555,8.73-0.103,24.48H29.549z"/><path fill="#88611b" d="M29.489,42c-2.668-3.628-7.269-13.359-4.322-24.48h-1.324c0,0-5.543,8.848-0.052,24.48H29.489z"/><path fill="#89621c" d="M29.429,42c-2.712-3.67-7.226-13.359-4.279-24.48h-1.295c0,0-5.531,8.965-0.001,24.48H29.429z"/><path fill="#8a621d" d="M29.368,42c-2.756-3.712-7.182-13.359-4.235-24.48h-1.267c0,0-5.519,9.083,0.049,24.48H29.368z"/><path fill="#8a631e" d="M29.308,42c-2.8-3.754-7.139-13.359-4.192-24.48h-1.238c0,0-5.507,9.2,0.1,24.48H29.308z"/><path fill="#8b641f" d="M29.248,42c-2.844-3.796-7.096-13.359-4.149-24.48h-1.21c0,0-5.495,9.318,0.15,24.48H29.248z"/><path fill="#8c6520" d="M29.187,42c-2.888-3.838-7.052-13.359-4.105-24.48h-1.181c0,0-5.483,9.435,0.201,24.48H29.187z"/><path fill="#8d6621" d="M29.127,42c-2.932-3.88-7.009-13.359-4.062-24.48h-1.153c0,0-5.471,9.552,0.251,24.48H29.127z"/><path fill="#8e6722" d="M29.066,42c-2.976-3.922-6.966-13.359-4.019-24.48h-1.124c0,0-5.459,9.67,0.302,24.48H29.066z"/><path fill="#8e6823" d="M29.006,42c-3.02-3.964-6.922-13.359-3.975-24.48h-1.096c0,0-5.447,9.787,0.353,24.48H29.006z"/><path fill="#8f6824" d="M28.946,42c-3.064-4.007-6.879-13.359-3.932-24.48h-1.067c0,0-5.436,9.905,0.403,24.48H28.946z"/><path fill="#906925" d="M28.885,42c-3.108-4.049-6.836-13.359-3.889-24.48h-1.039c0,0-5.424,10.022,0.454,24.48H28.885z"/><path fill="#916a26" d="M28.825,42c-3.152-4.091-6.792-13.359-3.845-24.48h-1.01c0,0-5.412,10.139,0.504,24.48H28.825z"/><path fill="#916b26" d="M28.765,42c-3.196-4.133-6.749-13.359-3.802-24.48h-0.982c0,0-5.4,10.257,0.555,24.48H28.765z"/><path fill="#926c27" d="M28.704,42c-3.24-4.175-6.706-13.359-3.759-24.48h-0.953c0,0-5.388,10.374,0.605,24.48H28.704z"/><path fill="#936d28" d="M28.644,42c-3.284-4.217-6.662-13.359-3.715-24.48h-0.925c0,0-5.376,10.492,0.656,24.48H28.644z"/><path fill="#946e29" d="M28.583,42c-3.328-4.259-6.619-13.359-3.672-24.48h-0.896c0,0-5.364,10.609,0.707,24.48H28.583z"/><path fill="#956e2a" d="M28.523,42c-3.372-4.301-6.576-13.359-3.629-24.48h-0.868c0,0-5.352,10.727,0.757,24.48H28.523z"/><path fill="#956f2b" d="M28.463,42c-3.416-4.343-6.532-13.359-3.585-24.48h-0.839c0,0-5.34,10.844,0.808,24.48H28.463z"/><path fill="#96702c" d="M28.402,42c-3.46-4.385-6.489-13.359-3.542-24.48H24.05c0,0-5.328,10.961,0.858,24.48H28.402z"/><path fill="#97712d" d="M28.342,42c-3.504-4.427-6.446-13.359-3.499-24.48h-0.782c0,0-5.317,11.079,0.909,24.48H28.342z"/><path fill="#98722e" d="M28.282,42c-3.548-4.469-6.402-13.359-3.455-24.48h-0.754c0,0-5.305,11.196,0.959,24.48H28.282z"/><path fill="#99732f" d="M28.221,42c-3.592-4.512-6.359-13.359-3.412-24.48h-0.725c0,0-5.293,11.314,1.01,24.48H28.221z"/><path fill="#997430" d="M28.161,42c-3.636-4.554-6.316-13.359-3.369-24.48h-0.697c0,0-5.281,11.431,1.061,24.48H28.161z"/><path fill="#9a7431" d="M28.1,42c-3.68-4.596-6.272-13.359-3.325-24.48h-0.668c0,0-5.269,11.548,1.111,24.48H28.1z"/><path fill="#9b7532" d="M28.04,42c-3.724-4.638-6.229-13.359-3.282-24.48h-0.64c0,0-5.257,11.666,1.162,24.48H28.04z"/><path fill="#9c7633" d="M27.98,42c-3.768-4.68-6.186-13.359-3.239-24.48H24.13c0,0-5.245,11.783,1.212,24.48H27.98z"/><path fill="#9d7734" d="M27.919,42c-3.812-4.722-6.142-13.359-3.195-24.48h-0.583c0,0-5.233,11.901,1.263,24.48H27.919z"/><path fill="#9d7835" d="M27.859,42c-3.856-4.764-6.099-13.359-3.152-24.48h-0.554c0,0-5.221,12.018,1.314,24.48H27.859z"/><path fill="#9e7936" d="M27.799,42c-3.9-4.806-6.056-13.359-3.109-24.48h-0.526c0,0-5.209,12.136,1.364,24.48H27.799z"/><path fill="#9f7a37" d="M27.738,42c-3.944-4.848-6.012-13.359-3.065-24.48h-0.497c0,0-5.197,12.253,1.415,24.48H27.738z"/><path fill="#a07b38" d="M27.678,42c-3.988-4.89-5.969-13.359-3.022-24.48h-0.469c0,0-5.186,12.37,1.465,24.48H27.678z"/><path fill="#a17b39" d="M27.617,42c-4.032-4.932-5.926-13.359-2.979-24.48h-0.44c0,0-5.174,12.488,1.516,24.48H27.617z"/><path fill="#a17c3a" d="M27.557,42c-4.076-4.974-5.882-13.359-2.935-24.48H24.21c0,0-5.162,12.605,1.566,24.48H27.557z"/><path fill="#a27d3b" d="M27.497,42c-4.12-5.017-5.839-13.359-2.892-24.48h-0.383c0,0-5.15,12.723,1.617,24.48H27.497z"/><path fill="#a37e3c" d="M27.436,42c-4.164-5.059-5.796-13.359-2.849-24.48h-0.355c0,0-5.138,12.84,1.668,24.48H27.436z"/><radialGradient id="ngGRkJ70_7W~acpNDem6ld" cx="29.66" cy="16.037" r="25.584" gradientUnits="userSpaceOnUse"><stop offset=".305" stop-color="#5e410c"/><stop offset=".331" stop-color="#5e410c" stop-opacity="0"/><stop offset=".489" stop-color="#5e410c"/><stop offset=".529" stop-color="#5e410c" stop-opacity="0"/><stop offset=".67" stop-color="#5e410c"/><stop offset=".704" stop-color="#5e410c" stop-opacity="0"/><stop offset=".855" stop-color="#5e410c"/><stop offset=".894" stop-color="#5e410c" stop-opacity="0"/><stop offset="1" stop-color="#5e410c"/></radialGradient><path fill="url(#ngGRkJ70_7W~acpNDem6ld)" d="M30.093,42c-2.228-3.207-7.702-13.359-4.755-24.48h-1.609c0,0-5.662,7.674-0.558,24.48H30.093	z"/><radialGradient id="ngGRkJ70_7W~acpNDem6le" cx="24.898" cy="16.724" r="23.674" gradientTransform="rotate(-14.023 24.368 17.531)" gradientUnits="userSpaceOnUse"><stop offset="0" stop-color="#253808"/><stop offset=".155" stop-color="#57801a"/><stop offset=".402" stop-color="#70a622"/><stop offset=".536" stop-color="#7ab525"/><stop offset=".658" stop-color="#77b024"/><stop offset=".793" stop-color="#6ea321"/><stop offset=".933" stop-color="#608d1d"/><stop offset="1" stop-color="#57801a"/></radialGradient><path fill="url(#ngGRkJ70_7W~acpNDem6le)" d="M14.418,22.704c-4.24,7.063,1.205,11.842,1.205,11.842s0.154-0.825,0.452-2.053	c0.048-0.199-0.425-1.35-0.37-1.568c0.045-0.177,0.733,0.139,0.783-0.048c0.131-0.489,0.163-0.569,0.327-1.107	c0.273-0.902-1.2-2.707-0.95-3.41c0.251-0.702,1.686,1.139,1.829,0.756c0.348-0.931,0.735-1.831,1.154-2.617	c0.128-0.239,0.255-0.467,0.383-0.685c0.164-0.28-0.481-2.032-0.319-2.28c0.176-0.269,1.158,0.968,1.331,0.734	c2.441-3.319,4.481-3.333,4.119-4.782C21.046,18.316,16.697,18.908,14.418,22.704z"/><radialGradient id="ngGRkJ70_7W~acpNDem6lf" cx="24.898" cy="16.724" r="23.674" gradientTransform="matrix(.991 .5389 -.5173 .9512 9.289 -12.269)" gradientUnits="userSpaceOnUse"><stop offset="0" stop-color="#253808"/><stop offset=".155" stop-color="#57801a"/><stop offset=".402" stop-color="#70a622"/><stop offset=".536" stop-color="#7ab525"/><stop offset=".658" stop-color="#77b024"/><stop offset=".793" stop-color="#6ea321"/><stop offset=".933" stop-color="#608d1d"/><stop offset="1" stop-color="#57801a"/></radialGradient><path fill="url(#ngGRkJ70_7W~acpNDem6lf)" d="M12.21,14.141c-8.785,2.402-7.779,10.289-7.779,10.289s0.697-0.505,1.797-1.218	c0.191-0.124,0.563-1.684,0.777-1.819c0.198-0.125,0.236,1.176,0.451,1.045c0.471-0.289,0.981-0.591,1.515-0.893	c0.898-0.509,1.005-3.049,1.736-3.417c0.731-0.368,0.564,2.172,0.968,1.977c0.832-0.403,1.67-0.767,2.475-1.056	c0.145-0.052,0.289-0.102,0.432-0.148c0.149-0.049,0.742-1.818,0.887-1.862c0.45-0.138,0.434,1.469,0.843,1.371	c5.325-1.269,7.25,0.618,8.082-0.912C21.008,15.658,16.932,12.85,12.21,14.141z"/><radialGradient id="ngGRkJ70_7W~acpNDem6lg" cx="23.494" cy="16.968" r="20.512" gradientTransform="matrix(1.1033 -.161 .1444 .9895 -5.047 4.06)" gradientUnits="userSpaceOnUse"><stop offset="0" stop-color="#253808"/><stop offset=".155" stop-color="#57801a"/><stop offset=".402" stop-color="#70a622"/><stop offset=".536" stop-color="#7ab525"/><stop offset=".658" stop-color="#77b024"/><stop offset=".793" stop-color="#6ea321"/><stop offset=".933" stop-color="#608d1d"/><stop offset="1" stop-color="#57801a"/></radialGradient><path fill="url(#ngGRkJ70_7W~acpNDem6lg)" d="M24.096,17.544c1.248,1.27,2.215,0.122,8.672,0.565c0.197,0.014-0.167-1.337,0.04-1.32	c0.323,0.027,1.179,1.226,1.517,1.272c0.691,0.093,1.634,0.224,2.352,0.374c0.44,0.092-0.171-2.098,0.37-2.025	c0.798,0.177,1.405,2.274,2.402,2.543c2.835,0.767,5.105,1.64,5.105,1.64s0.678-7.273-8.46-7.627	c-1.11-0.043-3.113,0.33-4.453,0.804C28.77,14.787,26.029,15.991,24.096,17.544z"/></svg>